<svg xmlns="http://www.w3.org/2000/svg" xmlns:xlink="http://www.w3.org/1999/xlink" version="1.1" x="0px" y="0px" viewBox="-41.479 -34.333 100 125" enable-background="new -41.479 -34.333 100 100" xml:space="preserve"><g><path fill="none" d="M-1.482,0.089c1.257,0.308,2.54-0.306,3.082-1.459c0.176-0.367,0.618-0.523,0.977-0.355   c0.368,0.174,0.526,0.61,0.353,0.978c-0.37,0.79-0.978,1.4-1.693,1.812C1.597,1.486,2.044,1.82,2.593,1.955   c1.432,0.355,2.9-0.519,3.261-1.958C6.05-0.807,5.872-1.631,5.397-2.269C5.135-1.956,4.859-1.647,4.509-1.415   C4.387-1.332,4.246-1.292,4.104-1.292c-0.236,0-0.469-0.117-0.614-0.328C3.269-1.961,3.362-2.416,3.703-2.639   C4.263-3.012,4.666-3.575,4.827-4.23C5-4.928,4.891-5.651,4.521-6.267S3.568-7.321,2.868-7.494   C1.419-7.862-0.037-6.976-0.396-5.533c-0.153,0.617-0.083,1.269,0.197,1.837c0.179,0.364,0.03,0.805-0.334,0.983   c-0.358,0.176-0.798,0.03-0.983-0.334c-0.3-0.604-0.383-1.271-0.364-1.938c-0.767,0.326-1.354,0.98-1.562,1.809   C-3.799-1.735-2.919-0.273-1.482,0.089z"/><path fill="none" d="M23.401,53.401l2.438-43.604l-1.568,1.569c-0.413,0.415-1.147,0.415-1.56,0l-4.02-4.021l-4.06,4.06   c-0.427,0.429-1.121,0.429-1.548,0.005L8.761,7.176L4.274,11.3c-0.434,0.398-1.106,0.387-1.526-0.032l-4.037-4.037l-4.264,4.268   c-0.43,0.429-1.128,0.429-1.557,0L-8.789,9.82l2.436,43.581H23.401z M18.146,12.125c0.012-0.406,0.315-0.674,0.751-0.72   c0.407,0.009,0.726,0.344,0.717,0.749l-0.809,37.75c-0.012,0.401-0.338,0.72-0.733,0.72c-0.006,0-0.012,0-0.012,0   c-0.413-0.01-0.734-0.341-0.723-0.748L18.146,12.125z M7.974,12.143c0-0.406,0.328-0.734,0.734-0.734   c0.403,0,0.733,0.328,0.733,0.734v37.747c0,0.404-0.33,0.734-0.733,0.734c-0.406,0-0.734-0.33-0.734-0.734V12.143z M-1.283,11.409   c0.35,0.053,0.743,0.311,0.753,0.719l0.848,37.798c0.009,0.402-0.312,0.74-0.716,0.745c-0.005,0-0.011,0-0.017,0   c-0.4,0-0.725-0.314-0.734-0.717l-0.849-37.798C-2.008,11.752-1.684,11.417-1.283,11.409z"/><path fill="none" d="M13.754-6.321c0.4,0.048,0.688,0.412,0.642,0.813c-0.043,0.374-0.361,0.649-0.728,0.649   c-0.029,0-0.058,0-0.087-0.003c-0.668-0.077-1.268-0.367-1.819-0.743c-0.142,0.822,0.089,1.67,0.674,2.298   c0.492,0.526,1.163,0.826,1.88,0.849c0.723,0.05,1.401-0.235,1.921-0.729c0.935-0.88,1.123-2.303,0.441-3.39   c-0.212-0.344-0.112-0.796,0.232-1.011c0.341-0.21,0.794-0.11,1.012,0.236c0.465,0.739,0.624,1.582,0.582,2.409   c0.553-0.076,1.089-0.267,1.502-0.657c1.084-1.019,1.139-2.73,0.121-3.812c-0.565-0.603-1.358-0.898-2.153-0.843   c0.126,0.39,0.234,0.788,0.241,1.209c0.005,0.405-0.318,0.737-0.724,0.74c-0.005,0-0.005,0-0.011,0   c-0.401,0-0.728-0.324-0.734-0.729c-0.006-0.676-0.264-1.318-0.728-1.812c-0.493-0.525-1.161-0.828-1.881-0.852   c-0.705,0.009-1.394,0.237-1.915,0.731c-1.084,1.02-1.135,2.73-0.12,3.815C12.542-6.682,13.118-6.391,13.754-6.321z"/><path fill="none" d="M2.173-19.285c0.084,0.396-0.17,0.787-0.563,0.869c-0.661,0.141-1.24,0.522-1.63,1.077   c-0.86,1.216-0.569,2.906,0.647,3.771c0.591,0.419,1.299,0.586,2.02,0.461c0.706-0.121,1.326-0.508,1.743-1.1   c0.367-0.52,0.541-1.156,0.484-1.787c-0.036-0.404,0.264-0.76,0.67-0.795c0.414-0.032,0.76,0.267,0.795,0.666   c0.062,0.676-0.106,1.33-0.364,1.95c0.837-0.022,1.627-0.418,2.125-1.123c0.855-1.214,0.561-2.905-0.652-3.769   c-1.048-0.745-2.49-0.651-3.412,0.232c-0.299,0.281-0.762,0.267-1.039-0.027c-0.281-0.294-0.27-0.759,0.024-1.039   c0.633-0.604,1.429-0.927,2.252-1.051c-0.182-0.537-0.484-1.021-0.952-1.351c-0.596-0.42-1.316-0.578-2.02-0.464   c-0.711,0.121-1.33,0.512-1.748,1.098c-0.478,0.679-0.607,1.521-0.39,2.292c0.362-0.198,0.729-0.387,1.143-0.474   C1.717-19.932,2.09-19.677,2.173-19.285z"/><path fill="#000000" d="M-7.395,55.604h31.836c0.582,0,1.064-0.457,1.096-1.039l2.655-47.501c0.003-0.027,0.003-0.05,0.003-0.076   c0.002-0.285-0.106-0.571-0.324-0.787c-0.427-0.429-1.124-0.429-1.554,0l-2.827,2.83l-4.019-4.022   c-0.208-0.205-0.488-0.322-0.78-0.322c-0.296,0-0.573,0.117-0.782,0.322L13.84,9.078L9.557,4.871   C9.134,4.459,8.473,4.448,8.039,4.846L3.558,8.963l-4.068-4.07c-0.415-0.415-1.148-0.415-1.56,0l-4.264,4.269l-2.942-2.939   c-0.321-0.322-0.806-0.417-1.227-0.225c-0.417,0.184-0.672,0.61-0.649,1.065l2.656,47.501C-8.46,55.147-7.979,55.604-7.395,55.604z    M-7.109,11.496c0.428,0.428,1.126,0.428,1.557,0l4.264-4.268l4.037,4.037c0.42,0.419,1.089,0.43,1.526,0.031l4.487-4.125   l4.316,4.237c0.43,0.423,1.123,0.42,1.554-0.006l4.06-4.06l4.02,4.021c0.412,0.415,1.146,0.415,1.557,0l1.568-1.57l-2.438,43.602   H-6.353L-8.789,9.817L-7.109,11.496z"/><path fill="#000000" d="M-0.416,50.671c0.006,0,0.012,0,0.017,0c0.404-0.011,0.726-0.349,0.716-0.751L-0.53,12.125   c-0.01-0.406-0.403-0.667-0.753-0.72c-0.404,0.009-0.725,0.347-0.715,0.749l0.849,37.795C-1.141,50.35-0.816,50.671-0.416,50.671z"/><path fill="#000000" d="M18.054,50.624c0,0,0.012,0,0.018,0c0.396,0,0.722-0.318,0.733-0.72l0.809-37.75   c0.009-0.405-0.31-0.74-0.717-0.749c-0.436,0.046-0.739,0.311-0.751,0.72l-0.809,37.75C17.326,50.283,17.65,50.618,18.054,50.624z"/><path fill="#000000" d="M8.708,50.624c0.403,0,0.733-0.33,0.733-0.734V12.143c0-0.406-0.33-0.734-0.733-0.734   c-0.406,0-0.734,0.328-0.734,0.734v37.747C7.974,50.299,8.302,50.624,8.708,50.624z"/><path fill="#000000" d="M-1.837,1.512c0.335,0.083,0.672,0.123,1.007,0.123c0.19,0,0.373-0.053,0.558-0.079   c0.574,0.916,1.465,1.564,2.507,1.822c0.334,0.083,0.672,0.124,1.006,0.124c1.865,0,3.565-1.265,4.034-3.153   c0.361-1.446-0.112-2.924-1.151-3.946c0.033-0.096,0.101-0.175,0.128-0.278c0.27-1.078,0.102-2.196-0.467-3.15   c-0.572-0.951-1.479-1.624-2.56-1.892C1.263-9.409-0.745-8.393-1.561-6.606c-1.61,0.289-2.91,1.481-3.303,3.078   C-5.418-1.306-4.059,0.958-1.837,1.512z M-3.443-3.175c0.208-0.832,0.795-1.483,1.562-1.809c-0.019,0.667,0.064,1.333,0.364,1.938   c0.18,0.364,0.625,0.51,0.983,0.334c0.364-0.179,0.513-0.619,0.334-0.983c-0.28-0.569-0.35-1.221-0.197-1.837   c0.358-1.439,1.814-2.329,3.264-1.958c0.697,0.174,1.286,0.611,1.653,1.225C4.888-5.654,4.997-4.926,4.827-4.23   C4.666-3.575,4.263-3.012,3.703-2.639C3.362-2.416,3.269-1.961,3.49-1.623c0.145,0.214,0.377,0.329,0.614,0.329   c0.142,0,0.283-0.037,0.405-0.124c0.35-0.229,0.625-0.538,0.888-0.851C5.872-1.631,6.05-0.807,5.854-0.003   C5.493,1.436,4.025,2.311,2.593,1.955C2.044,1.82,1.597,1.486,1.237,1.063C1.953,0.652,2.56,0.042,2.93-0.749   c0.173-0.367,0.015-0.804-0.353-0.978C2.218-1.894,1.773-1.738,1.6-1.371C1.058-0.217-0.225,0.397-1.482,0.089   C-2.919-0.273-3.799-1.735-3.443-3.175z"/><path fill="#000000" d="M10.6-6.842l-0.005,0.003c-0.677,1.531-0.379,3.314,0.768,4.541c0.766,0.81,1.795,1.276,2.907,1.309   c0.046,0,0.086,0,0.132,0c1.058,0,2.064-0.399,2.838-1.126c0.402-0.375,0.686-0.816,0.909-1.289c0.009,0,0.017,0,0.025,0   c1.064,0,2.07-0.399,2.844-1.128c1.67-1.57,1.755-4.213,0.184-5.886c-1.025-1.089-2.521-1.492-3.942-1.168   c-0.065-0.083-0.094-0.183-0.168-0.258c-0.763-0.814-1.795-1.281-2.907-1.316c-1.043-0.028-2.158,0.364-2.971,1.127   C9.751-10.66,9.585-8.497,10.6-6.842z M12.223-10.967c0.524-0.491,1.21-0.722,1.915-0.731c0.72,0.022,1.388,0.327,1.881,0.852   c0.464,0.493,0.722,1.136,0.728,1.812c0.007,0.401,0.333,0.729,0.734,0.729c0.006,0,0.006,0,0.011,0   c0.405-0.003,0.729-0.338,0.724-0.739c-0.007-0.422-0.115-0.82-0.241-1.211c0.797-0.055,1.588,0.242,2.153,0.844   c1.018,1.085,0.963,2.794-0.121,3.813c-0.413,0.39-0.942,0.58-1.502,0.657c0.042-0.827-0.117-1.667-0.582-2.41   c-0.212-0.345-0.671-0.442-1.012-0.235c-0.345,0.215-0.444,0.669-0.232,1.01c0.677,1.087,0.493,2.511-0.441,3.391   c-0.521,0.493-1.198,0.778-1.921,0.728c-0.717-0.02-1.388-0.322-1.88-0.848c-0.585-0.628-0.815-1.477-0.674-2.298   c0.552,0.375,1.155,0.665,1.819,0.743c0.032,0.002,0.061,0.002,0.087,0.002c0.366,0,0.685-0.276,0.728-0.649   c0.052-0.401-0.241-0.765-0.642-0.812c-0.637-0.067-1.213-0.358-1.651-0.829C11.088-8.234,11.139-9.945,12.223-10.967z"/><path fill="#000000" d="M-0.222-12.371C0.49-11.867,1.325-11.6,2.182-11.6c0.235,0,0.471-0.02,0.706-0.06   c0.821-0.14,1.514-0.574,2.104-1.131l0,0c0.305,0.067,0.611,0.1,0.913,0.1c1.331,0,2.597-0.636,3.39-1.756   c1.323-1.876,0.876-4.485-0.998-5.812c-0.449-0.32-0.945-0.517-1.457-0.638c-0.208-1.06-0.798-1.985-1.673-2.602   c-0.913-0.648-2.022-0.9-3.112-0.713C0.96-24.026,0-23.421-0.642-22.514c-0.86,1.222-0.955,2.771-0.353,4.109   c-0.067,0.084-0.165,0.13-0.224,0.218C-2.544-16.309-2.099-13.704-0.222-12.371z M0.555-21.666   c0.417-0.586,1.036-0.977,1.748-1.098c0.704-0.118,1.423,0.044,2.02,0.464c0.468,0.329,0.77,0.813,0.952,1.351   c-0.823,0.126-1.619,0.449-2.252,1.055c-0.294,0.276-0.306,0.744-0.024,1.039c0.277,0.294,0.74,0.305,1.039,0.026   c0.922-0.887,2.364-0.98,3.412-0.235c1.213,0.863,1.507,2.555,0.649,3.769c-0.499,0.705-1.286,1.101-2.125,1.123   c0.258-0.62,0.426-1.274,0.364-1.95C6.3-16.522,5.955-16.821,5.54-16.789c-0.403,0.035-0.702,0.391-0.667,0.795   c0.056,0.635-0.118,1.268-0.484,1.791c-0.417,0.588-1.037,0.975-1.746,1.096c-0.717,0.123-1.425-0.042-2.016-0.461   c-1.216-0.864-1.507-2.555-0.647-3.771c0.39-0.551,0.969-0.935,1.63-1.074c0.393-0.085,0.648-0.477,0.563-0.872   c-0.083-0.393-0.456-0.647-0.869-0.562c-0.414,0.087-0.781,0.275-1.142,0.474C-0.053-20.145,0.077-20.987,0.555-21.666z"/></g><text x="-41.479" y="80.667" fill="#000000" font-size="5px" font-weight="bold" font-family="'Helvetica Neue', Helvetica, Arial-Unicode, Arial, Sans-serif">Created by Josue Oquendo</text><text x="-41.479" y="85.667" fill="#000000" font-size="5px" font-weight="bold" font-family="'Helvetica Neue', Helvetica, Arial-Unicode, Arial, Sans-serif">from the Noun Project</text></svg>