<svg xmlns="http://www.w3.org/2000/svg" xmlns:xlink="http://www.w3.org/1999/xlink" version="1.1" x="0px" y="0px" viewBox="0 0 100 125" enable-background="new 0 0 100 100" xml:space="preserve"><path fill="#000000" d="M93.608,73.039c-4.143-3.656-9.573-8.446-14.977-13.213c6.518-1.682,9.815-4.136,6.801-7.379  C81.386,48.092,75.834,42.12,70.62,36.51c5.93-1.252,9.16-3.186,6.634-5.817C69.468,22.582,54.406,6.892,54.406,6.892  C53.194,5.63,51.597,4.999,50,4.999s-3.194,0.631-4.406,1.892c0,0-15.062,15.69-22.849,23.801c-2.526,2.631,0.705,4.564,6.634,5.817  c-5.214,5.61-10.765,11.582-14.811,15.936c-3.014,3.243,0.283,5.697,6.801,7.379c-5.404,4.767-10.834,9.558-14.977,13.213  c-6.35,5.6,9.945,8.889,30.224,9.877c-0.298,4.96,1.217,12.085,1.217,12.085h24.334c0,0,1.515-7.125,1.217-12.085  C83.663,81.928,99.958,78.639,93.608,73.039z M40.266,63.366c-3.582,0-6.489-2.904-6.489-6.489c0-3.586,2.907-6.489,6.489-6.489  c3.583,0,6.49,2.903,6.49,6.489C46.756,60.463,43.849,63.366,40.266,63.366z M54.867,34.166c-2.24,0-4.055-1.816-4.055-4.055  c0-2.241,1.816-4.056,4.055-4.056s4.055,1.816,4.055,4.056C58.922,32.35,57.107,34.166,54.867,34.166z M62.978,74.722  c-2.24,0-4.055-1.816-4.055-4.055c0-2.241,1.816-4.056,4.055-4.056s4.056,1.816,4.056,4.056  C67.034,72.907,65.218,74.722,62.978,74.722z"/><text x="0" y="115" fill="#000000" font-size="5px" font-weight="bold" font-family="'Helvetica Neue', Helvetica, Arial-Unicode, Arial, Sans-serif">Created by ermankutlu</text><text x="0" y="120" fill="#000000" font-size="5px" font-weight="bold" font-family="'Helvetica Neue', Helvetica, Arial-Unicode, Arial, Sans-serif">from the Noun Project</text></svg>